<svg
xmlns="http://www.w3.org/2000/svg" 
xmlns:xlink="http://www.w3.org/1999/xlink" 
viewBox="0,0,256,256" 
width="40px" 
height="40px">
<g fill="none" 
fill-rule="nonzero" 
stroke="none" 
stroke-width="1" 
stroke-linecap="butt" 
stroke-linejoin="miter" 
stroke-miterlimit="10" 
stroke-dasharray="" 
stroke-dashoffset="0" 
font-family="none" 
font-weight="none" 
font-size="none" 
text-anchor="none" 
style="mix-blend-mode: normal">
<g transform="scale(6.4,6.4)">
<path d="M20,1.5c-10.246,0 -18.5,8.254 -18.5,18.5c0,
10.246 8.254,18.5 18.5,18.5c10.245,0 18.5,-8.254 18.5,
-18.5c0,-10.246 -8.255,-18.5 -18.5,-18.5z" fill="#d288ea">
</path>
<path d="M20,39c-10.477,0 -19,-8.523 -19,-19c0,
-10.477 8.523,-19 19,-19c10.477,0 19,8.523 19,19c0,
10.477 -8.523,19 -19,19zM20,2c-9.925,0 -18,8.075 -18,
18c0,9.925 8.075,18 18,18c9.925,0 18,-8.075 18,-18c0,
-9.925 -8.075,-18 -18,-18z" fill="#891aa2">
</path>
<path d="M26.803,28.991c-0.27,0 -0.541,-0.134 -0.811,
-0.27c-2.569,-1.486 -5.316,-2.521 -8.695,-2.521c-1.893,
0 -3.786,0.13 -5.544,0.536c-0.27,0 -0.676,0.135 -0.811,
0.135c-0.676,0 -0.941,-0.542 -0.941,-1.082c0,-0.675 0.265,
-1.082 0.806,-1.215c2.162,-0.543 4.326,-0.574 6.623,-0.574c3.786,
0 6.938,1.069 9.912,2.83c0.405,0.269 0.676,0.54 0.676,1.215c-0.134,
0.542 -0.675,0.946 -1.215,0.946zM28.648,24.031c-0.405,0 -0.675,
-0.133 -0.946,-0.269c-2.838,-1.757 -6.35,-2.841 -10.81,-2.841c-2.164,
0 -4.191,0.271 -5.679,0.678c-0.406,0.133 -0.541,0.133 -0.811,0.133c-0.811,
0 -1.352,-0.675 -1.352,-1.351c0,-0.811 0.406,-1.217 1.081,-1.486c2.027,
-0.54 4.055,-0.895 6.894,-0.895c4.597,0 8.649,1.031 12.164,3.193c0.54,
0.269 0.811,0.811 0.811,1.351c0,0.812 -0.541,1.487 -1.352,1.487zM31.221,
18.626c-0.405,0 -0.541,-0.135 -0.946,-0.269c-3.245,-1.893 -8.111,-2.976 -12.844,
-2.976c-2.434,0 -4.867,0.271 -7.03,0.811c-0.271,0 -0.541,0.135 -0.946,0.135c-0.946,
0.135 -1.622,-0.675 -1.622,-1.622c0,-0.946 0.541,-1.486 1.216,-1.622c2.569,-0.812 5.272,
-1.083 8.382,-1.083c5.137,0 10.545,1.082 14.601,3.38c0.54,0.271 0.945,
0.811 0.945,1.622c-0.133,0.947 -0.81,1.624 -1.756,1.624z" fill="#ffffff">
</path></g></g></svg>